<?xml version="1.0" standalone="no"?>
<!DOCTYPE svg PUBLIC "-//W3C//DTD SVG 20010904//EN"
 "http://www.w3.org/TR/2001/REC-SVG-20010904/DTD/svg10.dtd">
<svg version="1.0" xmlns="http://www.w3.org/2000/svg"
 width="625.000000pt" height="625.000000pt" viewBox="0 0 625.000000 625.000000"
 preserveAspectRatio="xMidYMid meet">

<g transform="translate(0.000000,625.000000) scale(0.100000,-0.100000)"
fill="#000000" stroke="none">
<path d="M1758 4758 c-524 -612 -988 -1153 -1031 -1203 -106 -122 -259 -307
-366 -441 l-89 -112 1510 -1227 c831 -674 1516 -1229 1522 -1231 11 -4 386
446 386 464 0 5 -400 334 -890 732 l-890 723 89 96 c49 53 197 213 330 355
195 209 240 261 229 271 -12 12 -432 350 -454 367 -6 4 -100 -89 -245 -245
-129 -138 -268 -288 -310 -332 -43 -44 -85 -90 -96 -103 l-18 -23 -147 118
c-81 65 -146 121 -145 125 1 4 423 499 938 1100 1060 1237 1099 1284 1099
1291 0 3 -60 54 -132 113 -73 59 -179 145 -235 191 l-102 84 -953 -1113z"/>
<path d="M3114 4653 c-257 -318 -508 -627 -557 -687 -63 -76 -87 -113 -81
-122 5 -7 374 -308 819 -669 446 -361 818 -665 829 -675 18 -18 14 -23 -148
-224 l-167 -207 -67 59 c-622 547 -866 752 -877 740 -7 -7 -95 -114 -195 -237
-149 -183 -179 -226 -168 -236 7 -7 105 -91 218 -187 267 -226 453 -385 849
-722 193 -165 328 -273 333 -268 20 20 779 950 961 1179 75 94 137 175 136
180 0 4 -118 103 -262 219 -753 608 -1402 1138 -1402 1145 0 13 329 418 339
419 5 0 52 -35 104 -77 806 -657 1568 -1273 1574 -1273 4 0 92 105 197 233
l190 232 -22 21 c-17 17 -2069 1684 -2123 1726 -8 5 -169 -186 -480 -569z"/>
</g>
</svg>
